<!DOCTYPE svg PUBLIC "-//W3C//DTD SVG 1.1//EN" "http://www.w3.org/Graphics/SVG/1.1/DTD/svg11.dtd">
<!-- Uploaded to: SVG Repo, www.svgrepo.com, Transformed by: SVG Repo Mixer Tools -->
<svg width="800px" height="800px" viewBox="0 0 64 64" xmlns="http://www.w3.org/2000/svg" fill="#000000">
<g id="SVGRepo_bgCarrier" stroke-width="0"/>
<g id="SVGRepo_tracerCarrier" stroke-linecap="round" stroke-linejoin="round"/>
<g id="SVGRepo_iconCarrier"> <g id="a"/> <g id="b"/> <g id="c"/> <g id="d"/> <g id="e"/> <g id="f"/> <g id="g"/> <g id="h"/> <g id="i"/> <g id="j"/> <g id="k"/> <g id="l"/> <g id="m"> <path d="M53.89,26.27l3.1-.37,1.96-2.49c-.09-.32-.28-.61-.54-.78l-5.69-3.78c-.31-.21-.72,.08-.62,.44l1.79,6.99Z" fill="#36383a" id="n"/> <path d="M48.48,29.34l.86,5.34,4.77,4.61,4.81-15.06c.08-.26,.08-.54,.01-.8l-5.06,2.87-5.4,3.06Z" fill="#212426" id="o"/> <path d="M22.29,48.5c.19,.2,.46,.32,.76,.32h26.87c.59,0,1.22-.45,1.42-1,.93-2.61,1.86-5.55,2.79-8.54l-5.63-9.94-1.84-3.25c-.32-.57-.93-.92-1.58-.92h-8.47l-14.3,23.34Z" fill="#252e31" id="p"/> <path d="M6.79,15.18c-.56,0-.98,.5-.89,1.05l1.47,8.93,8.45-2.81-1.01-7.17H6.79Zm22.35,0l-1.46,5.23,8.9,4.75,1.47-8.93c.09-.55-.33-1.05-.89-1.05h-8.02Z" fill="#212426" id="q"/> <path d="M31.26,36.69l8.1-7.82-2.77-3.71-7.44-9.98H14.82l-7.44,9.98-2.13,2.86c-.36,.49-.31,1.17,.13,1.59l6.58,6.35c.26,.25,.57,.44,.9,.57l8.38-3.23,10.02,3.39Z" fill="#323739" id="r"/> <path d="M22.29,48.5l8.97-11.8h0l-6.96-1.21-3.94,1.21,1.62,8.68v2.37c0,.29,.12,.55,.3,.74h0Z" fill="#212426" id="s"/> <path d="M21.98,45.38v-8.68l-2.19-1.43-4.98,1.43,7.17,8.68Z" fill="#36383a" id="t"/> <path d="M18.62,29.52l-5.77,7.01c.29,.11,.6,.17,.92,.17H31.25l-5.91-7.18h-6.71Z" fill="#40484f" id="u"/> <path d="M18.62,29.52l3.36,3.09,3.36-3.09h-6.71Z" fill="#212426" id="v"/> <path d="M58.94,23.41l-5.74,.19,.69,2.67,5.06-2.86Z" fill="#4b5258" id="w"/> <path d="M14.81,15.18l-7.44,9.98,3.43-9.98h4.01Z" fill="#36383a" id="x"/> <path d="M29.15,15.18l7.44,9.98-3.43-9.98h-4.01Z" fill="#36383a" id="y"/> <path d="M48.48,29.34l6.82,6.24-1.18,3.7-5.63-9.94Z" fill="#36383a" id="a`"/> <path d="M21.98,36.7l-3.58,4.34,3.58,4.34v-8.68Z" fill="#4b5258" id="aa"/> <path d="M58.95,21.79l-5.68-3.78c-.49-.33-1.12-.32-1.6,.02-.48,.34-.69,.93-.54,1.5l1.61,6.25-3.87,2.19-1.35-2.38c-.5-.88-1.44-1.43-2.45-1.43h-7.29l1.28-7.77c.09-.55-.07-1.11-.43-1.54-.36-.43-.89-.67-1.45-.67H6.79c-.56,0-1.09,.24-1.45,.67s-.52,.99-.43,1.54l1.4,8.51-1.88,2.52c-.66,.89-.56,2.14,.24,2.91l6.58,6.35c.68,.66,1.57,1.02,2.52,1.02h.57l6.64,8.04v2.01c0,1.14,.92,2.06,2.06,2.06h26.87c1.01,0,2.02-.72,2.36-1.67,1.27-3.59,2.57-7.79,3.82-11.85,1.24-4.04,2.53-8.21,3.78-11.75,.35-.99-.04-2.17-.92-2.75Zm-1.58,1.35l-2.85,1.61-1.09-4.23,3.93,2.61Zm-20.32-6.96l-1.07,6.5-4.84-6.5h5.91Zm-24.23,0l-4.85,6.51-1.1-6.51h5.95Zm-.19,19.04l-6.56-6.33c-.07-.07-.08-.19-.02-.27l2.13-2.86,7.14-9.58h13.33l9.38,12.58-6.69,6.46-5.22-6.34c-.19-.23-.47-.36-.77-.36h-6.72c-.3,0-.58,.13-.77,.36l-5.22,6.34Zm10.14-4.71l-.79,.73-.79-.73h1.58Zm-1.79,12.08l-4.04-4.9h4.04v4.9Zm-6.15-6.9l3.89-4.73,2.58,2.37c.38,.35,.97,.35,1.35,0l2.58-2.37,3.89,4.73H14.83Zm8.15,10.23v-8.23h6.25l-6.25,8.23Zm27.41,1.55c-.05,.15-.31,.33-.47,.33l-25.81-.06,7.9-10.39,8.05-7.77c.36-.35,.41-.91,.11-1.32l-1.58-2.11h6.47c.29,0,.57,.16,.71,.42l1.84,3.25h0l5.42,9.57c-.88,2.83-1.77,5.62-2.64,8.09Zm3.79-11.77c-.11,.35-.22,.71-.33,1.06l-4-7.06,4.53-2.57,3.11-1.76c-1.11,3.24-2.22,6.8-3.31,10.33Z"/> </g> <g id="ab"/> <g id="ac"/> <g id="ad"/> <g id="ae"/> <g id="af"/> <g id="ag"/> <g id="ah"/> <g id="ai"/> <g id="aj"/> <g id="ak"/> <g id="al"/> <g id="am"/> <g id="an"/> <g id="ao"/> <g id="ap"/> <g id="aq"/> <g id="ar"/> <g id="as"/> <g id="at"/> <g id="au"/> <g id="av"/> <g id="aw"/> <g id="ax"/> <g id="ay"/> <g id="b`"/> <g id="ba"/> <g id="bb"/> <g id="bc"/> <g id="bd"/> <g id="be"/> <g id="bf"/> <g id="bg"/> <g id="bh"/> <g id="bi"/> <g id="bj"/> <g id="bk"/> <g id="bl"/> </g>
</svg>